# xmcd
#
# Track frame offsets: 
#        183
#        14033
#        29095
#        44358
#        57570
#        77933
#        98083
#        113633
#        129420
#        143145
#
# Disc length: 2086 seconds
#
# Revision: 5
# Processed by: cddbd v1.5.2PL0 Copyright (c) Steve Scherf et al.
# Submitted via: ExactAudioCopy v1.2
#
DISCID=8c08240a
DTITLE=Kathy Mattea - Untasted Honey
DYEAR=1987
DGENRE=Country
TTITLE0=Untold Stories
TTITLE1=Life As We Knew It
TTITLE2=Eighteen Wheels And A Dozen Roses
TTITLE3=The Battle Hymn Of Love
TTITLE4=Late In The Day
TTITLE5=Goin' Gone
TTITLE6=Untasted Honey
TTITLE7=Like A Hurricane
TTITLE8=As Long As I Have A Heart
TTITLE9=Every Love
EXTD=
EXTT0=
EXTT1=
EXTT2=
EXTT3=
EXTT4=
EXTT5=
EXTT6=
EXTT7=
EXTT8=
EXTT9=
PLAYORDER=
